<svg id="Capa_1" data-name="Capa 1" xmlns="http://www.w3.org/2000/svg" viewBox="0 0 1348 419"><defs><style>.cls-1{fill:#fff;}</style></defs><path class="cls-1" d="M48,297a7.78,7.78,0,0,1-3.5.83c-2.86,0-4.52-2.25-4.52-5.62,0-3.07,1.63-5.38,4.67-5.38a5.86,5.86,0,0,1,3.1.77l-.52.95a5.18,5.18,0,0,0-2.58-.65c-2.25,0-3.41,1.89-3.41,4.27,0,2.78,1.13,4.61,3.34,4.61a5.71,5.71,0,0,0,2.2-.38v-2.94H45l0-1h3Z"/><path class="cls-1" d="M53.88,297.81c-3.08,0-4.17-2.58-4.17-5.59,0-2.83,1-5.41,4.17-5.41s4.21,2.54,4.21,5.41S57,297.81,53.88,297.81Zm0-10c-2.24,0-2.91,2.23-2.91,4.36,0,2.31.56,4.58,2.91,4.58s2.93-2.2,2.93-4.58C56.81,290,56.16,287.84,53.88,287.84Z"/><path class="cls-1" d="M63.12,297.81a7.78,7.78,0,0,1-3.12-.56V287h2.77c2.18,0,3.42,1.07,3.42,2.58a2.48,2.48,0,0,1-1.76,2.57v0a2.63,2.63,0,0,1,2.34,2.52C66.77,296.55,65.19,297.81,63.12,297.81ZM62.77,288H61.22v3.78h1.56a1.87,1.87,0,0,0,2.14-2.11C64.92,288.51,64.11,288,62.77,288Zm.12,4.73H61.22v3.78a5.19,5.19,0,0,0,1.9.33,2.15,2.15,0,0,0,2.39-2.15C65.51,293.48,64.75,292.71,62.89,292.71Z"/><path class="cls-1" d="M68.77,297.65V287H70v10.69Z"/><path class="cls-1" d="M72.54,297.65V287h5.9V288H73.76v3.67h3.72l-.16,1.07H73.76v3.86h4.68v1Z"/><path class="cls-1" d="M81.42,293.33v4.32h-1.2V287h2.86c2.08,0,3.75.88,3.75,3.06a3.13,3.13,0,0,1-2.15,3l2.42,4.59H85.65l-2.15-4.36a6,6,0,0,1-.61,0ZM82.91,288H81.42v4.36h1.49c1.61,0,2.63-.74,2.63-2.26S84.54,288,82.91,288Z"/><path class="cls-1" d="M93.8,297.65l-4-9.48H89.7l0,9.48H88.58V287h2l4.08,9.56h.08l0-9.56h1.2v10.69Z"/><path class="cls-1" d="M102,297.81c-3.09,0-4.18-2.58-4.18-5.59,0-2.83,1-5.41,4.18-5.41s4.21,2.54,4.21,5.41S105.09,297.81,102,297.81Zm0-10c-2.25,0-2.92,2.23-2.92,4.36,0,2.31.56,4.58,2.92,4.58s2.92-2.2,2.92-4.58C104.93,290,104.29,287.84,102,287.84Z"/><path class="cls-1" d="M112.81,293.33v4.32H111.6V287h2.87c2.07,0,3.75.88,3.75,3.06a3.14,3.14,0,0,1-2.15,3l2.42,4.59H117l-2.15-4.36a5.66,5.66,0,0,1-.6,0Zm1.48-5.38h-1.48v4.36h1.48c1.62,0,2.63-.74,2.63-2.26S115.92,288,114.29,288Z"/><path class="cls-1" d="M120,297.65V287h5.9V288h-4.69v3.67h3.72l-.16,1.07h-3.56v3.86h4.69v1Z"/><path class="cls-1" d="M135,297a7.78,7.78,0,0,1-3.5.83c-2.87,0-4.53-2.25-4.53-5.62,0-3.07,1.63-5.38,4.67-5.38a5.81,5.81,0,0,1,3.1.77l-.52.95a5.12,5.12,0,0,0-2.58-.65c-2.25,0-3.4,1.89-3.4,4.27,0,2.78,1.12,4.61,3.34,4.61a5.71,5.71,0,0,0,2.2-.38v-2.94h-1.77l-.05-1h3Z"/><path class="cls-1" d="M137.4,297.65V287h1.22v10.69Z"/><path class="cls-1" d="M145.09,297.81c-3.08,0-4.18-2.58-4.18-5.59,0-2.83,1.05-5.41,4.18-5.41s4.21,2.54,4.21,5.41S148.18,297.81,145.09,297.81Zm0-10c-2.24,0-2.91,2.23-2.91,4.36,0,2.31.55,4.58,2.91,4.58s2.93-2.2,2.93-4.58C148,290,147.37,287.84,145.09,287.84Z"/><path class="cls-1" d="M156.43,297.65l-4-9.48h-.06l0,9.48h-1.15V287h2l4.09,9.56h.08l-.05-9.56h1.2v10.69Z"/><path class="cls-1" d="M161.1,297.65h-1.18L162.85,287h2.61l2.7,10.69h-1.33l-.65-2.72H161.8Zm2.54-9.64-1.59,5.87H166L164.54,288Z"/><path class="cls-1" d="M169.72,297.65V287h1.22v9.67h4.68v1Z"/><path class="cls-1" d="M48.4,312.19v14.53H43.59V312.19H38.85v-3.56H53.12v3.56Z"/><path class="cls-1" d="M63.55,322.91H57.32l-.88,3.81H51.78l5.46-18.09h7.25l5.45,18.09H64.49Zm-5.4-3.37h4.57L61,312.36H60Z"/><path class="cls-1" d="M78.16,320.13H76.63v6.59H72V308.63h6.93c4,0,7.13,1.68,7.13,5.52a5.75,5.75,0,0,1-3.62,5.26l4.07,7.31H81.09Zm0-8.23H76.63v5h1.53c2.24,0,3-1,3-2.71S80.17,311.9,78.16,311.9Z"/><path class="cls-1" d="M99.18,322.91H93l-.88,3.81H87.42l5.45-18.09h7.25l5.45,18.09h-5.45Zm-5.39-3.37h4.57l-1.69-7.18h-1Z"/><path class="cls-1" d="M112.14,320.74v6h-4.65V308.63h6.43c4.18,0,7.8,1.85,7.8,5.81,0,3.38-2.83,6.3-7.8,6.3Zm1.72-8.55h-1.72v5.28h1.72a2.73,2.73,0,0,0,2.92-2.84C116.78,313.18,115.74,312.19,113.86,312.19Z"/><path class="cls-1" d="M133,322.91h-6.22l-.88,3.81h-4.66l5.46-18.09h7.25l5.45,18.09H133.9Zm-5.39-3.37h4.57l-1.68-7.18h-1Z"/><path class="cls-1" d="M148.87,327c-5.66,0-8.82-3.21-8.82-9.41,0-5.51,2.89-9.2,8.82-9.2a14.22,14.22,0,0,1,7.07,1.55l-1.74,3.4a8.74,8.74,0,0,0-4.77-1.21c-3,0-4.45,1.69-4.45,5.45,0,3.93,1.47,5.64,4.39,5.64a9.93,9.93,0,0,0,5.13-1.63L156,325A13.08,13.08,0,0,1,148.87,327Z"/><path class="cls-1" d="M168.85,322.91h-6.22l-.88,3.81h-4.66l5.45-18.09h7.25l5.46,18.09h-5.46Zm-6.61-15.27-.37-2.42,8.63-1.06-.06,3.11Zm1.21,11.9H168l-1.68-7.18h-1Z"/><rect class="cls-1" x="38.85" y="300.29" width="136.4" height="1.37"/><path class="cls-1" d="M35.42,93.24V283.67H178.13V93.24Zm3.64,3.22H175.25V196.54s-25.82-21.64-68.1-21.64c-39.89,0-68.09,21.64-68.09,21.64Zm8.82,184.67s21.26-21.31,60-21.31,59.36,21.31,59.36,21.31Zm127.58-3.46c-10.1-6.65-35-20.56-66.48-20.56-32,0-59.36,14.36-70.13,20.87V213.14s26.74-34.63,68.8-34.63,67.81,34.63,67.81,34.63Z"/><path class="cls-1" d="M154.6,142.62c-1.61-.09-2.42.54-3.51,2,0,0-1.16,1.45-.64,5.63-.26.66-1.08-.33-5.12-.75,0,0-8.26-.8-12.75-1.26-2.89-.28-3.34-.6-7.18-1-6.19-.27-6.49-.15-9.09-.72a3.74,3.74,0,0,1-1.79-.69,2.51,2.51,0,0,1-.79-2.54c.5-1.45,7.65-2.06,12.12-2.3,4.85-.26,11.67-.8,13.8-1,4.72-.09,9.26.31,10.58-.4,1-.5.41-2.36.4-2.39s-.85-.38-5.26,0c-1.94.17-5.6.38-6,.4-3.32.15-4.88.33-6.66.41-3.21.14-6,.1-6,.1s-1.1-.91-.7-1.62,4.87-.31,5.87-.33c1.35-.16,2.35-.23,3.9-.33,4.14-.26,6-.44,8.42-.5,3.46,0,6.72,0,6.94-1.11.24-1.58-1.27-1.31-2.43-1.31l-2.31,0c-3.47,0-17.82,1.56-18.17,1.56-1.21,0-2.12.08-2.29-.76s.1-.59.11-.6c1-1,5.68-1.08,12.8-1.42,1.27-.06,5.26-.54,5.26-.54.33,0,.67,0,1,0,3,0,5.37-.29,5.43-1.28-.57-1.33-1.95-1.36-3-1.36-.86,0-1.91.07-2.94.07-3,0-10.08.95-10.15,1a32.31,32.31,0,0,1-3.76.2,40.87,40.87,0,0,1-4.82-.08c-.75-.12-.46-.25-.5-.56a.9.9,0,0,1,.51-1.05c.12-.16.79-.28,3.83-.28,3.33,0,7.59-.23,7.64-.23.59,0,3.71-.11,4.34-.15,3-.2,6.55-.28,7.13-.64a2,2,0,0,0,.28-1.71c-.2-.57-1.73-.16-2.31-.23a46.21,46.21,0,0,0-4.89,0h-6.35a35.08,35.08,0,0,1-4.18.06c-7.4-.5-7.69-.09-8.27-2.28-.77-2.94-.59-8.84-.92-10.79-.45-2.66-.18-5.71-2-5.55a7.87,7.87,0,0,1-1.2,0c-1.47.55-1.37,14.66-1.71,17.45,0,0-.42,1.69-1.89,1.5-3.32-.41-2.25-4.94-2.69-7.28,0,0-.5-6.12-.48-6.54,0-5.09-2.26-5.58-3.15-4.43-1.65-.81-1.21,17.75-1.39,16.19a2.56,2.56,0,0,1-2.4,2.36c-2.16,0-2.37-1.37-2.43-1.46-1-3.28-.89-10.69-.86-11,.14-6.21-1.51-7.06-2.7-6.45-2.42-.47-1.65,10.17-1.71,9.7l-.15,7.07a2.17,2.17,0,0,1-2.3,2c-1.06-.2-1.38-.65-2-2.11-.9-1.33-.67-12-.66-12.42-.13-3.53-1.92-4.17-2.92-3.87-2.28.69-1,9.2-1.77,16.32-.21,2.08-4.08,2.39-5,2.5-.43,0-8,.21-9.32.25-.34,0-10,.3-10.11.31-2.08.3-2.24,1-2.28,1.13-.4.92,1.08,1.11,1.08,1.11s1,.31,4.51.31c5.18,0,13.61-.38,13.7-.39,1.27-.08,3.59-.29,4.32-.31,2.44-.05,2.1.6,2,1.3,0,1-.84,1.16-4,1-1.17-.05-3.24.13-5.32.19-1.08.06-2.55.15-3.43.15H68.44c-3.32,0-6.38,0-7.16.63a1.1,1.1,0,0,0-.12.86c.27.51,2.29.68,2.29.68s3.71.26,4.87.26c4.07,0,14.65-.31,14.65-.31,3.45-.51,4.33-.12,4,.89s-1.66.55-4.15.6c-5.24.11-13.2.23-13.24.23-.93,0-1.82.11-2.59.11-4.19,0-5.23.78-5.45,1.4-.34,1,4.11.88,7.89.88,6.55,0,14-.45,14.06-.46a11.22,11.22,0,0,1,3.45.52c-.17-.11,1.83,2.19-5.16,1.87-2.83.26-11.63.08-12.09.08-3.57,0-4.58-.58-7.45.64,0,0-2.32,1.81,1.25,2.6.32.07,13.13-.59,21-.59a77,77,0,0,1,11.17.6c2.48.41,4.24.53,4.32,1.58a3.65,3.65,0,0,1-.26,2.22,9.42,9.42,0,0,1-2.47.82c-2.71,1-9.52,1-11.9,1.45-4,.69-4.26,5.78-6.72,12.25-.73,3.23-4.49,13.44-5.72,11.12a91.55,91.55,0,0,1-4.31-8.51c-1.56-3.94-3-7.16-4.16-10.32l-.35-3.6c0-4.22-2.34-6.12-5.11-5.83-3.81,2.26-2.22,5.31-2.22,5.31-.16,1.45,2.75,3.73,2.91,4a10.88,10.88,0,0,1,1.81,3.85c1.12,3,7.09,16.06,8.21,17.4-.65-.82,2.34,3.86,4.67,3.3,1.93-.46,3.45-2.92,3.82-3.57,3.28-6.23,3.38-8.32,4.63-11.29,2.53-7.61,3.6-10.6,7.34-8.93,2,.89,1.82,7.12,2,12.1.14,5.39.5,24.34.44,27.72-.1,6.69-1.82,5.78-6,6.19-2.6.31-.72.09-6,.53-3,.25-10,1-11.31,1.06-7.66.46-9.62,1.38-9.23,2.57.19.58,3.62.16,15.51.87,4.18.26,9.09.18,10.59.23,3.76.16,5.06.2,5.23.79,0,.18.18.27,0,1.51-.39,3.42-1.77,25-1.77,25l-2.77.36c-2.09.36-1.59.19-5.28.83-1.6.31-2.3.32-1.69,1a9.91,9.91,0,0,0,3.36,1l3.82.55c.59.18,2,.08,2,.57a34.05,34.05,0,0,1-.94,6c-.77,3.92-1.3,6.8-1.92,9.27-1.66,3.85-5,4.92-7.4,6.21-5.42,3.3-8.61,4.54-9,5.85-.14.44,1,1.66,2.86,1.31a56.35,56.35,0,0,0,5.83-1.7L83,262.42c11.28-1.65,13.61-1.78,12.64-4.53A1.94,1.94,0,0,0,94,256.37c-.48-.15-1.45-.61-1.59-1-.51-1.15-.07-2.22,1.09-5.73,1.08-3.26,1.51-4.48,1.63-5.1a57,57,0,0,1,1.69-5.77c.41-1.42.22-2.08,1.71-2.49a27.62,27.62,0,0,1,4.42-.75c3.83-.38,3.73-1.37,2.4-1.7-2-.5-5.47-1.33-5.67-1.42-1.4-.63-1.16-1.65-1.16-1.65,1-5.71,1.21-8,1.9-13.17,1-7.45,1-6.43,1.33-9.62.22-2,.65-2.53,1.17-2.68,1.15-.34,1.74-.33,5.09-.45s5.72-.41,6.3.9a28.48,28.48,0,0,1,1.3,6.16c.47,2.88,1.74,6.69,2.24,10.36.31,3,1.65,8.33,1.62,9.33,0,1.19-9.71,2.08-6.56,3.3a27.92,27.92,0,0,0,4.94.78c2,.25,2.66-.25,2.9.82.92,4.14.24,1.35.9,4.05.8,3.27-.53-2.12,1.36,4.73-.4-1.46.3,1.39.52,2.39.55,2.47-.27-1.18.89,4.89.27,1.43.12,2.2-1,3-.65.48-2.27.75-1.63,2.9.2.72,1.54.71,1.94.85a14,14,0,0,0,2.49.44c.54.09,2.93.56,3.48.64,4.16.61,2.28.14,5.59.91,4.14,1,5.75,2,7.33,2.47,4.21,1.34,4.71.45,5.21-.17,1.4-1.73-3.9-3-5.85-4.14a42.24,42.24,0,0,0-4.49-2.31c-1.09-.57-3.54-1.48-4.66-2.71a7.39,7.39,0,0,1-1.67-3c-2-8.39-2.48-11.9-2.82-14-.17-1-.09-.42-.25-1.56-.07-.49.16-.35.82-.53,2.42-.67,7.33-.65,7.31-1.88a10.78,10.78,0,0,0-4.7-1.24c-2.22-.16-3.76-.18-4-2-.61-4.84-.85-8-1-9.22,0-.43-.32-4-.56-5.62-.45-3.05-1.19-7.31-1.07-8.37.15-1.52.94-1.3.94-1.3l13.05-.91c-1.21,0,7.6-.38,9.87-.6,11.35-1.08-3.07-2.76-7-3.13-2.05-.2-6.5-.18-11.58-.79-5.77-.69-7.35-1.86-7.9-5.51-.91-6-1.37-20.73-1.39-21.24-.39-12.12-.33-10,0-17,0,0-.09-3.11,2.39-4.15,3.73-1.56,6.13,7.46,7.93,11.8,3.11,10.91,5.47,14,8.68,13.34,2.11-.48,3.91-3,3.91-3s1.42-.78,4.47-7c1.78-3.63,3.86-9.19,3.85-9.21l2.28-6.45c2.09.05,3.47-3.89,3.47-4.44C158,144.73,155.88,142.68,154.6,142.62Zm-52-8.08c-.07,1.48-1,2.27-2.8,2.27a17.32,17.32,0,0,1-1.9,0,2.47,2.47,0,0,1-1.82-.83,2.27,2.27,0,0,1-.39-1.81c.08-1,.55-1.72,2.54-1.85.45,0,1.44,0,1.53,0,1.4,0,2,.28,2.52.83A1.76,1.76,0,0,1,102.57,134.54Zm7.14,4.93a4.43,4.43,0,0,1-.12,1.63,1.36,1.36,0,0,1-1.15,1h-1.16a7.25,7.25,0,0,1-1.19,0,1.14,1.14,0,0,1-1.14-.77,3,3,0,0,1-.24-1.66c.05-1,.35-1.58,1.59-1.69a6.76,6.76,0,0,1,1,0,5.42,5.42,0,0,1,1,0c.37.06.87,0,1.14.5C109.5,138.56,109.57,138.57,109.71,139.47Zm1.45-5.41c.09-1,1.19-2,3.26-1.86.43.05,2.64.05,3.09,1a3.32,3.32,0,0,1,.33,1.27c-.07,1.45-.91,2.22-2.64,2.22h0c-3.2.11-3.33-.48-3.65-.85A2.28,2.28,0,0,1,111.16,134.06Zm38.77,19.47a32.15,32.15,0,0,0-1.51,3.85c-1.06,2.93-2,4.82-2.88,7.12-5.49,10.6-6.33,9.81-7.46,6.86-1.49-3.91-1.66-5.19-2.08-6.33a63.15,63.15,0,0,0-4.14-11c-1.19-3.09.57-2.25,5.84-2.12,2.91.08,5.58.62,7.69.77C147.27,152.81,149.93,152.88,149.93,153.53Z"/><path class="cls-1" d="M254.47,94.21V260.62H379.18V94.21ZM257.66,97h119v87.46s-22.55-18.91-59.5-18.91c-34.87,0-59.5,18.91-59.5,18.91Zm7.7,161.38s18.58-18.62,52.39-18.62,51.87,18.62,51.87,18.62Zm111.49-3c-8.83-5.81-30.59-18-58.1-18-27.94,0-51.87,12.55-61.28,18.24V199s23.37-30.27,60.12-30.27S376.85,199,376.85,199Z"/><path class="cls-1" d="M358.62,137.36c-1.41-.08-2.11.47-3.07,1.76,0,0-1,1.27-.56,4.92-.22.58-.94-.28-4.47-.65,0,0-7.22-.7-11.14-1.1-2.53-.25-2.92-.53-6.28-.84-5.41-.24-5.67-.13-7.94-.63a3.36,3.36,0,0,1-1.57-.6,2.23,2.23,0,0,1-.69-2.23c.44-1.26,6.69-1.79,10.59-2,4.24-.23,10.21-.7,12.07-.89,4.12-.07,8.09.28,9.25-.34.82-.44.35-2.07.34-2.1s-.75-.33-4.59,0c-1.7.16-4.9.33-5.24.35-2.9.14-4.27.29-5.82.36-2.81.12-5.24.09-5.27.09s-1-.8-.61-1.41,4.26-.28,5.13-.3c1.18-.13,2.05-.2,3.41-.28,3.61-.23,5.21-.39,7.35-.44,3,0,5.88,0,6.07-1,.21-1.38-1.11-1.14-2.13-1.14l-2,0c-3,0-15.58,1.36-15.88,1.36-1.06,0-1.86.06-2-.67s.09-.51.09-.53c.84-.9,5-.94,11.19-1.24,1.11,0,4.59-.46,4.59-.46l.86,0c2.65,0,4.69-.25,4.75-1.12-.51-1.16-1.71-1.19-2.59-1.19s-1.68.07-2.58.07c-2.59,0-8.81.83-8.87.84a26,26,0,0,1-3.28.17,38.57,38.57,0,0,1-4.22-.06c-.65-.11-.4-.22-.43-.49a.79.79,0,0,1,.45-.92c.1-.14.69-.25,3.34-.25,2.91,0,6.63-.2,6.68-.2.51,0,3.24-.09,3.79-.13,2.66-.17,5.72-.24,6.23-.55a1.82,1.82,0,0,0,.25-1.5c-.18-.5-1.52-.14-2-.2a37.46,37.46,0,0,0-4.27,0H342a30,30,0,0,1-3.65,0c-6.46-.43-6.72-.07-7.22-2-.68-2.57-.52-7.73-.81-9.43-.39-2.33-.16-5-1.71-4.85a7.24,7.24,0,0,1-1,0c-1.29.48-1.2,12.81-1.5,15.25,0,0-.36,1.48-1.65,1.31-2.9-.35-2-4.32-2.34-6.36,0,0-.45-5.35-.43-5.72.05-4.45-2-4.88-2.75-3.86-1.44-.72-1.06,15.5-1.22,14.14a2.22,2.22,0,0,1-2.09,2.06c-1.89,0-2.08-1.19-2.13-1.27-.91-2.87-.78-9.34-.75-9.61.12-5.43-1.31-6.16-2.35-5.63-2.12-.42-1.45,8.88-1.5,8.47l-.14,6.18a1.87,1.87,0,0,1-2,1.73c-.93-.17-1.21-.57-1.72-1.84-.79-1.17-.59-10.5-.58-10.85-.12-3.09-1.68-3.65-2.55-3.38-2,.6-.91,8-1.55,14.25-.19,1.82-3.57,2.09-4.33,2.19-.38,0-7,.18-8.15.21l-8.83.28c-1.82.26-2,.91-2,1-.35.8.94,1,.94,1s.83.26,3.94.26c4.52,0,11.9-.32,12-.33,1.11-.07,3.14-.26,3.78-.28,2.13,0,1.83.53,1.74,1.14,0,.88-.73,1-3.52.88-1,0-2.84.12-4.65.17-.95,0-2.23.13-3,.13h-4.85c-2.91,0-5.57,0-6.26.55a.94.94,0,0,0-.1.75c.23.45,2,.6,2,.6s3.24.22,4.25.22c3.56,0,12.81-.27,12.81-.27,3-.44,3.78-.11,3.46.78s-1.45.48-3.63.52c-4.58.1-11.54.2-11.57.2-.81,0-1.59.1-2.26.1-3.66,0-4.57.68-4.77,1.23-.29.85,3.6.77,6.89.77,5.73,0,12.23-.4,12.3-.41a9.81,9.81,0,0,1,3,.46c-.15-.1,1.6,1.91-4.51,1.64-2.47.22-10.16.06-10.57.06-3.11,0-4-.5-6.51.56,0,0-2,1.58,1.1,2.27.28.06,11.47-.51,18.32-.51a68,68,0,0,1,9.76.52c2.17.36,3.71.46,3.78,1.38a3.19,3.19,0,0,1-.23,1.94,8.08,8.08,0,0,1-2.16.72c-2.36.9-8.32.9-10.4,1.26-3.47.6-3.72,5.05-5.87,10.71-.64,2.82-3.92,11.74-5,9.72a80.3,80.3,0,0,1-3.76-7.44c-1.36-3.44-2.61-6.25-3.64-9l-.31-3.14c0-3.69-2-5.35-4.46-5.09-3.33,2-1.94,4.63-1.94,4.63-.14,1.27,2.4,3.26,2.54,3.48a9.54,9.54,0,0,1,1.59,3.37c1,2.57,6.19,14,7.17,15.21-.57-.72,2.05,3.36,4.08,2.88,1.69-.41,3-2.56,3.34-3.13,2.86-5.44,3-7.27,4.05-9.86,2.2-6.65,3.14-9.27,6.41-7.81,1.73.78,1.59,6.23,1.77,10.58.13,4.71.44,21.27.39,24.22-.09,5.85-1.59,5.05-5.29,5.42-2.27.27-.63.07-5.25.46-2.6.21-8.77.86-9.89.92-6.69.41-8.4,1.2-8.06,2.25.16.5,3.16.13,13.56.76,3.64.22,7.94.15,9.24.2,3.29.14,4.43.17,4.57.69.05.16.16.23,0,1.31-.34,3-1.54,21.89-1.54,21.89l-2.42.32c-1.83.31-1.39.16-4.62.72-1.4.27-2,.28-1.48.91a8.58,8.58,0,0,0,2.94.9l3.34.49c.51.16,1.74.07,1.74.5a28.61,28.61,0,0,1-.82,5.26c-.67,3.43-1.13,5.95-1.67,8.1-1.45,3.38-4.34,4.31-6.47,5.43-4.74,2.88-7.52,4-7.9,5.11-.13.39.87,1.46,2.5,1.15,2.64-.5,4.54-1.42,5.1-1.48l4-1.07c9.86-1.44,11.89-1.56,11.05-4a1.7,1.7,0,0,0-1.44-1.33,3.06,3.06,0,0,1-1.4-.82c-.44-1,0-1.95,1-5,.94-2.85,1.32-3.92,1.42-4.46a49.07,49.07,0,0,1,1.48-5.05c.36-1.24.19-1.81,1.5-2.17a23.47,23.47,0,0,1,3.85-.65c3.35-.34,3.26-1.2,2.1-1.49-1.76-.44-4.78-1.16-4.95-1.24-1.22-.55-1-1.45-1-1.45.9-5,1.05-7,1.65-11.51.86-6.5.86-5.61,1.17-8.4.18-1.72.56-2.21,1-2.34,1-.3,1.52-.29,4.44-.4s5-.35,5.51.79a24.72,24.72,0,0,1,1.14,5.38c.41,2.52,1.52,5.85,2,9.05.27,2.64,1.44,7.29,1.41,8.16,0,1-8.49,1.82-5.74,2.88a24.67,24.67,0,0,0,4.33.69c1.71.21,2.32-.22,2.53.72.8,3.61.21,1.18.78,3.53.7,2.86-.46-1.85,1.2,4.14-.35-1.28.26,1.21.45,2.08.48,2.16-.24-1,.78,4.28a2.22,2.22,0,0,1-.87,2.64c-.57.42-2,.65-1.43,2.53.18.63,1.35.62,1.7.74a12.46,12.46,0,0,0,2.18.39c.47.08,2.56.49,3,.56a31.81,31.81,0,0,1,4.89.79,51.46,51.46,0,0,1,6.4,2.16c3.68,1.17,4.12.39,4.55-.15,1.23-1.51-3.41-2.6-5.11-3.62a37.77,37.77,0,0,0-3.92-2c-1-.49-3.1-1.29-4.08-2.36a6.63,6.63,0,0,1-1.46-2.59,124.18,124.18,0,0,1-2.45-12.27c-.16-.9-.09-.38-.23-1.37-.06-.43.14-.3.72-.46,2.12-.59,6.41-.57,6.38-1.64a9.33,9.33,0,0,0-4.1-1.09c-1.94-.14-3.28-.16-3.48-1.72-.54-4.23-.75-7-.85-8.05,0-.38-.28-3.48-.49-4.92a66.16,66.16,0,0,1-.94-7.32c.13-1.32.82-1.13.82-1.13l11.41-.79c-1.06,0,6.64-.34,8.62-.53,9.92-.95-2.68-2.42-6.08-2.74-1.79-.17-5.68-.16-10.12-.68-5-.6-6.42-1.63-6.9-4.82-.79-5.26-1.2-18.12-1.22-18.57-.34-10.59-.29-8.74,0-14.85,0,0-.08-2.71,2.09-3.62,3.26-1.37,5.36,6.52,6.93,10.31,2.72,9.53,4.78,12.28,7.59,11.65,1.84-.42,3.41-2.58,3.41-2.58s1.24-.67,3.91-6.13c1.55-3.17,3.37-8,3.36-8.05l2-5.63c1.83,0,3-3.4,3-3.88C361.56,139.2,359.74,137.41,358.62,137.36Zm-45.47-7.06c-.06,1.29-.9,2-2.44,2-.86,0-1.51,0-1.67,0a2.15,2.15,0,0,1-1.58-.73,2,2,0,0,1-.35-1.58c.07-.91.49-1.51,2.22-1.62.4,0,1.26,0,1.34,0,1.23,0,1.79.25,2.2.73A1.52,1.52,0,0,1,313.15,130.3Zm6.25,4.3a4,4,0,0,1-.11,1.43,1.19,1.19,0,0,1-1,.83h-1a6.61,6.61,0,0,1-1,0,1,1,0,0,1-1-.67,2.71,2.71,0,0,1-.22-1.45c.05-.84.3-1.38,1.39-1.48a6.3,6.3,0,0,1,.83,0,4.14,4.14,0,0,1,.9,0c.33,0,.76,0,1,.43C319.21,133.81,319.27,133.82,319.4,134.6Zm1.26-4.72c.07-.89,1-1.79,2.85-1.62.37,0,2.31,0,2.69.87a2.51,2.51,0,0,1,.29,1.1c-.05,1.27-.79,2-2.3,2h0c-2.79.09-2.91-.42-3.19-.75A2,2,0,0,1,320.66,129.88Zm33.88,17a28.54,28.54,0,0,0-1.32,3.37c-.92,2.56-1.76,4.21-2.52,6.22-4.79,9.26-5.53,8.58-6.52,6-1.3-3.41-1.45-4.53-1.81-5.53a55.22,55.22,0,0,0-3.62-9.63c-1-2.7.5-2,5.1-1.85,2.55.07,4.88.54,6.72.68C352.22,146.26,354.54,146.33,354.54,146.89Z"/><polygon class="cls-1" points="265.92 309.04 252.73 309.04 252.73 312.34 257.11 312.34 257.11 325.77 261.56 325.77 261.56 312.34 265.92 312.34 265.92 309.04"/><path class="cls-1" d="M269.73,309l-5,16.73H269l.81-3.52h5.76l.87,3.52h5l-5-16.73Zm.85,10.09,1.71-6.64h1l1.55,6.64Z"/><path class="cls-1" d="M296.39,314.14c0-3.54-2.92-5.1-6.59-5.1h-6.41v16.73h4.28v-6.09h1.41l2.71,6.09h5L293,319a5.31,5.31,0,0,0,3.35-4.87m-7.31,2.51h-1.41v-4.59h1.41c1.86,0,2.73.6,2.73,2.08s-.65,2.51-2.73,2.51"/><path class="cls-1" d="M302.68,309l-5,16.73H302l.82-3.52h5.75l.87,3.52h5l-5-16.73Zm.85,10.09,1.72-6.64h.95l1.56,6.64Z"/><path class="cls-1" d="M322.15,309h-5.94v16.73h4.3v-5.53h1.64c4.6,0,7.22-2.7,7.22-5.82,0-3.67-3.35-5.38-7.22-5.38m-.06,8.18h-1.58v-4.88h1.58c1.74,0,2.7.91,2.7,2.25a2.53,2.53,0,0,1-2.7,2.63"/><path class="cls-1" d="M333.92,309l-5,16.73h4.3l.82-3.52h5.75l.88,3.52h5l-5-16.73Zm.84,10.09,1.73-6.64h.95l1.55,6.64Z"/><path class="cls-1" d="M354.94,322.52c-2.71,0-4.06-1.59-4.06-5.22s1.39-5,4.11-5a8.11,8.11,0,0,1,4.42,1.11l1.6-3.14a13.07,13.07,0,0,0-6.54-1.44c-5.48,0-8.15,3.41-8.15,8.51,0,5.73,2.92,8.71,8.15,8.71A12.1,12.1,0,0,0,361,324.2L359.68,321a9.24,9.24,0,0,1-4.74,1.51"/><path class="cls-1" d="M367.12,309l-5,16.73h4.3l.82-3.52H373l.87,3.52h5.05L373.82,309Zm.84,10.09,1.72-6.64h1l1.55,6.64Z"/><polygon class="cls-1" points="374.48 304.91 366.5 305.89 366.84 308.13 374.42 307.78 374.48 304.91"/><path class="cls-1" d="M270,271.23a18.49,18.49,0,0,1,9.36,2.18l2.82-4.91c-3.1-1.72-7.78-2.64-13-2.64-10.77,0-16.47,6.21-16.47,15.94,0,10.43,5.76,16.27,16.47,16.27a25.93,25.93,0,0,0,13.08-3.34l-2.36-4.91a20.2,20.2,0,0,1-10,2.87c-6.21,0-9.36-3.7-9.36-10.93,0-6.86,3.15-10.53,9.47-10.53"/><path class="cls-1" d="M317.77,281.71c0-8.3-3.38-15.85-16.3-15.85-12.69,0-16.18,7.64-16.18,15.85,0,8.53,3.61,16.36,16.18,16.36s16.3-8,16.3-16.36m-24.7,0c0-5.61,1.75-10.56,8.4-10.56s8.46,4.86,8.46,10.56c0,6.31-1.91,11.31-8.46,11.31-6.71,0-8.4-5.1-8.4-11.31"/><path class="cls-1" d="M349.8,275.73c0-6.54-6.09-9.41-13.59-9.41H324v31.29h7.33V285.84c1.58,0,2.71,0,4.4,0L342,297.61h8.69c-2.65-4.36-5.42-8.53-8.07-12.89,4.29-1.62,7.22-4.77,7.22-9M335,281.06H331.3v-10H335c4.45,0,6.88,1.16,6.88,4.63s-2,5.38-6.88,5.38"/><polygon class="cls-1" points="379.18 271.46 379.18 266.32 355.78 266.32 355.78 297.61 379.18 297.61 379.18 292.56 363.16 292.56 363.16 284.54 374.84 284.54 375.4 279.16 363.16 279.16 363.16 271.46 379.18 271.46"/><rect class="cls-1" x="252.41" y="302.94" width="126.86" height="0.49"/><path class="cls-1" d="M558.82,186.48H577a35.73,35.73,0,0,1,9.36.94,16.45,16.45,0,0,1,7.42,4.53,21.58,21.58,0,0,1,4.7,8,36.45,36.45,0,0,1,1.61,11.63A32.51,32.51,0,0,1,598.56,222a21.67,21.67,0,0,1-5.27,8.69,17.43,17.43,0,0,1-7,3.93,30.14,30.14,0,0,1-8.79,1h-18.7Zm9.94,8.32v32.59h7.41a27.26,27.26,0,0,0,6-.47,9.05,9.05,0,0,0,4-2,10.39,10.39,0,0,0,2.6-4.75,32.07,32.07,0,0,0,1-9,29.33,29.33,0,0,0-1-8.75,11.21,11.21,0,0,0-2.82-4.77,9.5,9.5,0,0,0-4.59-2.32,45.43,45.43,0,0,0-8.16-.47Z"/><path class="cls-1" d="M652.86,235.68H642.05l-4.3-11.18H618.09L614,235.68H603.49l19.16-49.2h10.51Zm-18.29-19.46L627.79,198l-6.65,18.26Z"/><path class="cls-1" d="M664.1,235.68V194.8H649.5v-8.32h39.09v8.32H674v40.88Z"/><path class="cls-1" d="M734.27,235.68H723.46l-4.29-11.18H699.5l-4.06,11.18H684.9l19.17-49.2h10.5ZM716,216.22,709.2,198l-6.64,18.26Z"/><path class="cls-1" d="M750.65,186.48h9.94v26.65a54.6,54.6,0,0,0,.37,8.22,8,8,0,0,0,3,4.85,10.58,10.58,0,0,0,6.56,1.83q4.23,0,6.38-1.73a6.83,6.83,0,0,0,2.58-4.25,55.19,55.19,0,0,0,.44-8.35V186.48h9.93v25.84a67.15,67.15,0,0,1-.8,12.52,13.85,13.85,0,0,1-3,6.17,15,15,0,0,1-5.79,4,25.08,25.08,0,0,1-9.46,1.5q-7.05,0-10.69-1.63a15.17,15.17,0,0,1-5.76-4.23,13.41,13.41,0,0,1-2.78-5.45,59.61,59.61,0,0,1-1-12.49Z"/><path class="cls-1" d="M829.15,217.59l9.63,3q-2.21,8.06-7.36,12t-13.08,3.91a21.12,21.12,0,0,1-16.1-6.7q-6.32-6.69-6.31-18.3,0-12.28,6.34-19.08t16.68-6.8q9,0,14.66,5.34a19.37,19.37,0,0,1,5,9.06l-9.84,2.35a10.17,10.17,0,0,0-10.36-8.26,11.19,11.19,0,0,0-8.88,3.93q-3.41,3.93-3.41,12.72,0,9.33,3.36,13.29a10.89,10.89,0,0,0,8.72,4,10,10,0,0,0,6.82-2.52Q827.91,223,829.15,217.59Z"/><path class="cls-1" d="M567.48,254.12V241.37h9.22v1.51h-7.53v3.9h7.05v1.5h-7.05v4.34H577v1.5Z"/><path class="cls-1" d="M578.57,251.36l1.55-.24a2.18,2.18,0,0,0,.73,1.43,2.51,2.51,0,0,0,1.66.49,2.41,2.41,0,0,0,1.6-.44,1.29,1.29,0,0,0,.52-1,.94.94,0,0,0-.46-.83,6.34,6.34,0,0,0-1.6-.53,13.65,13.65,0,0,1-2.38-.76,2.28,2.28,0,0,1-1-.87,2.35,2.35,0,0,1-.35-1.24,2.42,2.42,0,0,1,.29-1.15,2.47,2.47,0,0,1,.77-.87,3.27,3.27,0,0,1,1-.46,4.89,4.89,0,0,1,1.35-.18,5.28,5.28,0,0,1,1.91.31,2.59,2.59,0,0,1,1.22.85,3.29,3.29,0,0,1,.54,1.43l-1.54.21a1.66,1.66,0,0,0-.6-1.12,2.23,2.23,0,0,0-1.41-.4,2.55,2.55,0,0,0-1.54.36,1,1,0,0,0-.46.84.83.83,0,0,0,.19.54,1.4,1.4,0,0,0,.6.42c.16.06.62.19,1.38.4a19.64,19.64,0,0,1,2.32.73,2.34,2.34,0,0,1,1,.82,2.28,2.28,0,0,1,.37,1.34,2.64,2.64,0,0,1-.45,1.47,3,3,0,0,1-1.32,1.07,4.81,4.81,0,0,1-2,.38,4.32,4.32,0,0,1-2.74-.75A3.52,3.52,0,0,1,578.57,251.36Z"/><path class="cls-1" d="M591.59,252.72l.23,1.38a5.37,5.37,0,0,1-1.18.14,2.72,2.72,0,0,1-1.33-.27,1.51,1.51,0,0,1-.66-.71,5.76,5.76,0,0,1-.19-1.84V246.1h-1.15v-1.21h1.15V242.6l1.56-.94v3.23h1.57v1.21H590v5.4a2.87,2.87,0,0,0,.08.86.74.74,0,0,0,.27.31,1.12,1.12,0,0,0,.54.11A5.07,5.07,0,0,0,591.59,252.72Z"/><path class="cls-1" d="M599.25,254.12v-1.36a3.38,3.38,0,0,1-2.93,1.57,3.87,3.87,0,0,1-1.53-.31,2.51,2.51,0,0,1-1-.79,3.06,3.06,0,0,1-.49-1.16,8.5,8.5,0,0,1-.09-1.46v-5.72h1.56V250a9.36,9.36,0,0,0,.1,1.65,1.66,1.66,0,0,0,.63,1,2,2,0,0,0,1.18.35,2.57,2.57,0,0,0,1.32-.36,2,2,0,0,0,.87-1,4.78,4.78,0,0,0,.26-1.81v-4.94h1.57v9.23Z"/><path class="cls-1" d="M609.16,254.12V253a2.88,2.88,0,0,1-2.58,1.37,3.59,3.59,0,0,1-2-.61,4,4,0,0,1-1.44-1.7,5.86,5.86,0,0,1-.51-2.51,6.53,6.53,0,0,1,.47-2.51,3.54,3.54,0,0,1,1.38-1.72,3.68,3.68,0,0,1,2.06-.6A3,3,0,0,1,608,245a3.14,3.14,0,0,1,1.06.92v-4.58h1.55v12.75Zm-4.95-4.61a4,4,0,0,0,.75,2.65,2.25,2.25,0,0,0,1.77.88,2.21,2.21,0,0,0,1.74-.84,3.85,3.85,0,0,0,.72-2.56,4.38,4.38,0,0,0-.73-2.78,2.26,2.26,0,0,0-1.8-.89,2.2,2.2,0,0,0-1.75.85A4.27,4.27,0,0,0,604.21,249.51Z"/><path class="cls-1" d="M613.15,243.17v-1.8h1.57v1.8Zm0,11v-9.23h1.57v9.23Z"/><path class="cls-1" d="M616.59,249.5a4.77,4.77,0,0,1,1.43-3.8,4.3,4.3,0,0,1,2.9-1,4.13,4.13,0,0,1,3.11,1.24,4.76,4.76,0,0,1,1.21,3.45,6.22,6.22,0,0,1-.53,2.81,3.77,3.77,0,0,1-1.56,1.58,4.49,4.49,0,0,1-2.23.57,4.16,4.16,0,0,1-3.13-1.24A5,5,0,0,1,616.59,249.5Zm1.61,0a4,4,0,0,0,.77,2.66,2.59,2.59,0,0,0,3.89,0,4,4,0,0,0,.77-2.71,3.83,3.83,0,0,0-.77-2.59,2.49,2.49,0,0,0-1.94-.89,2.52,2.52,0,0,0-1.95.88A4,4,0,0,0,618.2,249.5Z"/><path class="cls-1" d="M626.52,251.36l1.55-.24a2.18,2.18,0,0,0,.73,1.43,2.51,2.51,0,0,0,1.66.49,2.41,2.41,0,0,0,1.6-.44,1.29,1.29,0,0,0,.52-1,.94.94,0,0,0-.46-.83,6.5,6.5,0,0,0-1.6-.53,13.36,13.36,0,0,1-2.38-.76,2.28,2.28,0,0,1-1-.87,2.35,2.35,0,0,1-.35-1.24,2.42,2.42,0,0,1,.29-1.15,2.38,2.38,0,0,1,.77-.87,3.27,3.27,0,0,1,1-.46,4.89,4.89,0,0,1,1.35-.18,5.31,5.31,0,0,1,1.91.31,2.64,2.64,0,0,1,1.22.85,3.17,3.17,0,0,1,.53,1.43l-1.53.21a1.7,1.7,0,0,0-.6-1.12,2.23,2.23,0,0,0-1.41-.4,2.53,2.53,0,0,0-1.54.36,1,1,0,0,0-.46.84.83.83,0,0,0,.19.54,1.4,1.4,0,0,0,.6.42c.15.06.62.19,1.38.4a19.64,19.64,0,0,1,2.32.73,2.34,2.34,0,0,1,1,.82,2.28,2.28,0,0,1,.37,1.34,2.64,2.64,0,0,1-.45,1.47,3,3,0,0,1-1.32,1.07,4.88,4.88,0,0,1-1.95.38,4.32,4.32,0,0,1-2.74-.75A3.52,3.52,0,0,1,626.52,251.36Z"/><path class="cls-1" d="M641.07,257.68l-.17-1.47a3.6,3.6,0,0,0,.9.14,1.67,1.67,0,0,0,.83-.18,1.38,1.38,0,0,0,.51-.48,7.74,7.74,0,0,0,.48-1.17l.14-.38-3.5-9.25h1.68l1.93,5.34c.24.68.47,1.39.66,2.14a20.48,20.48,0,0,1,.65-2.1l2-5.38h1.57l-3.52,9.39a19.16,19.16,0,0,1-.87,2.09,3.09,3.09,0,0,1-1,1.14,2.27,2.27,0,0,1-1.29.36A3.36,3.36,0,0,1,641.07,257.68Z"/><path class="cls-1" d="M654.76,250l1.6-.13a3.47,3.47,0,0,0,.52,1.56,3,3,0,0,0,1.28,1,4.93,4.93,0,0,0,2,.37,4.7,4.7,0,0,0,1.7-.28,2.34,2.34,0,0,0,1.1-.79,1.77,1.77,0,0,0,.37-1.09,1.68,1.68,0,0,0-.35-1,2.56,2.56,0,0,0-1.15-.75,23.17,23.17,0,0,0-2.27-.62,11.45,11.45,0,0,1-2.46-.8,3.41,3.41,0,0,1-1.36-1.19,2.88,2.88,0,0,1-.45-1.58,3.21,3.21,0,0,1,.55-1.81,3.36,3.36,0,0,1,1.6-1.27,6.06,6.06,0,0,1,2.34-.43,6.48,6.48,0,0,1,2.5.45A3.6,3.6,0,0,1,663.9,243a3.85,3.85,0,0,1,.63,2l-1.62.13a2.62,2.62,0,0,0-.88-1.83,3.44,3.44,0,0,0-2.22-.62,3.58,3.58,0,0,0-2.23.56,1.69,1.69,0,0,0-.7,1.36,1.46,1.46,0,0,0,.49,1.13,7,7,0,0,0,2.55.9,16.81,16.81,0,0,1,2.82.82,3.79,3.79,0,0,1,1.64,1.3,3.18,3.18,0,0,1,.53,1.81,3.46,3.46,0,0,1-.58,1.92,3.92,3.92,0,0,1-1.67,1.4,5.91,5.91,0,0,1-2.46.5,7.28,7.28,0,0,1-2.9-.51,4.09,4.09,0,0,1-1.84-1.51A4.42,4.42,0,0,1,654.76,250Z"/><path class="cls-1" d="M673.41,251.15l1.62.2a4,4,0,0,1-1.42,2.2,4.81,4.81,0,0,1-5.86-.47,4.88,4.88,0,0,1-1.18-3.5,5.12,5.12,0,0,1,1.2-3.62,4.07,4.07,0,0,1,3.11-1.28,3.94,3.94,0,0,1,3,1.26,5,5,0,0,1,1.18,3.55c0,.09,0,.23,0,.41h-6.89a3.58,3.58,0,0,0,.86,2.33A2.57,2.57,0,0,0,671,253a2.38,2.38,0,0,0,1.47-.45A3,3,0,0,0,673.41,251.15Zm-5.14-2.53h5.16a3.17,3.17,0,0,0-.59-1.75,2.42,2.42,0,0,0-1.94-.91,2.47,2.47,0,0,0-1.82.73A2.83,2.83,0,0,0,668.27,248.62Z"/><path class="cls-1" d="M677.05,254.12v-9.23h1.4v1.4a3.87,3.87,0,0,1,1-1.3,1.71,1.71,0,0,1,1-.31,3.09,3.09,0,0,1,1.61.5l-.54,1.45a2.27,2.27,0,0,0-1.14-.34,1.55,1.55,0,0,0-.93.31,1.72,1.72,0,0,0-.58.86,6.22,6.22,0,0,0-.26,1.83v4.83Z"/><path class="cls-1" d="M685.63,254.12l-3.51-9.23h1.65l2,5.53c.22.59.41,1.21.59,1.86.14-.49.34-1.08.59-1.76l2.05-5.63h1.61l-3.5,9.23Z"/><path class="cls-1" d="M692.05,243.17v-1.8h1.56v1.8Zm0,11v-9.23h1.56v9.23Z"/><path class="cls-1" d="M702.09,250.74l1.54.2a4,4,0,0,1-1.29,2.49,3.75,3.75,0,0,1-2.55.9,4,4,0,0,1-3-1.24,5,5,0,0,1-1.15-3.55,6.28,6.28,0,0,1,.5-2.62,3.43,3.43,0,0,1,1.5-1.68,4.43,4.43,0,0,1,2.21-.56,3.82,3.82,0,0,1,2.46.76,3.5,3.5,0,0,1,1.23,2.16l-1.53.23a2.51,2.51,0,0,0-.77-1.4,2,2,0,0,0-1.33-.47,2.44,2.44,0,0,0-1.92.85,4,4,0,0,0-.74,2.68,4.21,4.21,0,0,0,.71,2.71,2.34,2.34,0,0,0,1.86.84,2.21,2.21,0,0,0,1.54-.56A2.83,2.83,0,0,0,702.09,250.74Z"/><path class="cls-1" d="M705.05,243.17v-1.8h1.57v1.8Zm0,11v-9.23h1.57v9.23Z"/><path class="cls-1" d="M708.49,249.5a4.77,4.77,0,0,1,1.42-3.8,4.34,4.34,0,0,1,2.91-1,4.13,4.13,0,0,1,3.11,1.24,4.76,4.76,0,0,1,1.21,3.45,6.22,6.22,0,0,1-.53,2.81,3.77,3.77,0,0,1-1.56,1.58,4.49,4.49,0,0,1-2.23.57,4.2,4.2,0,0,1-3.14-1.24A5,5,0,0,1,708.49,249.5Zm1.61,0a4,4,0,0,0,.77,2.66,2.59,2.59,0,0,0,3.89,0,4.09,4.09,0,0,0,.77-2.71,3.78,3.78,0,0,0-.78-2.59,2.46,2.46,0,0,0-1.93-.89,2.52,2.52,0,0,0-2,.88A4,4,0,0,0,710.1,249.5Z"/><path class="cls-1" d="M718.42,251.36l1.55-.24a2.21,2.21,0,0,0,.72,1.43,2.56,2.56,0,0,0,1.67.49,2.41,2.41,0,0,0,1.6-.44,1.29,1.29,0,0,0,.52-1,.94.94,0,0,0-.46-.83,6.5,6.5,0,0,0-1.6-.53,13.84,13.84,0,0,1-2.39-.76,2.26,2.26,0,0,1-1-.87,2.35,2.35,0,0,1-.35-1.24,2.54,2.54,0,0,1,.28-1.15,2.58,2.58,0,0,1,.77-.87,3.46,3.46,0,0,1,1-.46,4.89,4.89,0,0,1,1.35-.18A5.31,5.31,0,0,1,724,245a2.56,2.56,0,0,1,1.21.85,3.29,3.29,0,0,1,.54,1.43l-1.53.21a1.7,1.7,0,0,0-.6-1.12,2.28,2.28,0,0,0-1.42-.4,2.51,2.51,0,0,0-1.53.36,1.05,1.05,0,0,0-.47.84.84.84,0,0,0,.2.54,1.28,1.28,0,0,0,.6.42c.15.06.61.19,1.38.4a19.64,19.64,0,0,1,2.32.73,2.4,2.4,0,0,1,1,.82,2.28,2.28,0,0,1,.37,1.34,2.58,2.58,0,0,1-.46,1.47,2.92,2.92,0,0,1-1.31,1.07,4.88,4.88,0,0,1-2,.38,4.3,4.3,0,0,1-2.74-.75A3.47,3.47,0,0,1,718.42,251.36Z"/><path class="cls-1" d="M733.28,254.12V241.37h9.21v1.51H735v3.9H742v1.5H735v4.34h7.83v1.5Z"/><path class="cls-1" d="M744.36,251.36l1.55-.24a2.18,2.18,0,0,0,.73,1.43,2.53,2.53,0,0,0,1.66.49,2.39,2.39,0,0,0,1.6-.44,1.3,1.3,0,0,0,.53-1,1,1,0,0,0-.47-.83,6.34,6.34,0,0,0-1.6-.53,13.65,13.65,0,0,1-2.38-.76,2.28,2.28,0,0,1-1-.87,2.34,2.34,0,0,1-.34-1.24,2.41,2.41,0,0,1,.28-1.15,2.47,2.47,0,0,1,.77-.87,3.27,3.27,0,0,1,1-.46,4.92,4.92,0,0,1,1.36-.18,5.26,5.26,0,0,1,1.9.31,2.59,2.59,0,0,1,1.22.85,3.29,3.29,0,0,1,.54,1.43l-1.53.21a1.67,1.67,0,0,0-.61-1.12,2.23,2.23,0,0,0-1.41-.4,2.55,2.55,0,0,0-1.54.36,1,1,0,0,0-.46.84.83.83,0,0,0,.19.54,1.4,1.4,0,0,0,.6.42c.16.06.62.19,1.38.4a19.64,19.64,0,0,1,2.32.73,2.34,2.34,0,0,1,1,.82,2.28,2.28,0,0,1,.37,1.34,2.64,2.64,0,0,1-.45,1.47,3,3,0,0,1-1.32,1.07,4.81,4.81,0,0,1-2,.38,4.32,4.32,0,0,1-2.74-.75A3.52,3.52,0,0,1,744.36,251.36Z"/><path class="cls-1" d="M757.38,252.72l.23,1.38a5.3,5.3,0,0,1-1.18.14,2.65,2.65,0,0,1-1.32-.27,1.48,1.48,0,0,1-.67-.71,5.76,5.76,0,0,1-.19-1.84V246.1h-1.14v-1.21h1.14V242.6l1.56-.94v3.23h1.57v1.21h-1.57v5.4a2.87,2.87,0,0,0,.08.86.74.74,0,0,0,.27.31,1.12,1.12,0,0,0,.54.11A5.07,5.07,0,0,0,757.38,252.72Z"/><path class="cls-1" d="M765,253a5.88,5.88,0,0,1-1.67,1,4.7,4.7,0,0,1-1.73.31,3.4,3.4,0,0,1-2.34-.74,2.47,2.47,0,0,1-.81-1.9,2.56,2.56,0,0,1,.3-1.24,2.53,2.53,0,0,1,.81-.9,3.89,3.89,0,0,1,1.13-.52,10.67,10.67,0,0,1,1.39-.23,14.23,14.23,0,0,0,2.79-.54c0-.21,0-.35,0-.41a1.75,1.75,0,0,0-.44-1.35,2.66,2.66,0,0,0-1.79-.53,2.76,2.76,0,0,0-1.63.39,2.31,2.31,0,0,0-.77,1.37l-1.54-.21a3.88,3.88,0,0,1,.69-1.59,3.07,3.07,0,0,1,1.38-.93,6.44,6.44,0,0,1,2.1-.32,5.41,5.41,0,0,1,1.92.28,2.42,2.42,0,0,1,1.09.7,2.54,2.54,0,0,1,.49,1.06,9.4,9.4,0,0,1,.07,1.44v2.09a23.49,23.49,0,0,0,.1,2.76,3.44,3.44,0,0,0,.4,1.11h-1.64A3.4,3.4,0,0,1,765,253Zm-.13-3.49a12.08,12.08,0,0,1-2.56.59,5.63,5.63,0,0,0-1.36.31,1.43,1.43,0,0,0-.62.51,1.37,1.37,0,0,0-.22.74,1.34,1.34,0,0,0,.48,1.05,2.08,2.08,0,0,0,1.39.41,3.24,3.24,0,0,0,1.6-.39,2.48,2.48,0,0,0,1-1.09,3.72,3.72,0,0,0,.25-1.56Z"/><path class="cls-1" d="M775,254.12V253a2.87,2.87,0,0,1-2.58,1.37,3.59,3.59,0,0,1-2-.61,4,4,0,0,1-1.44-1.7,6,6,0,0,1-.5-2.51,6.52,6.52,0,0,1,.46-2.51,3.54,3.54,0,0,1,1.38-1.72,3.68,3.68,0,0,1,2.06-.6,3.06,3.06,0,0,1,2.55,1.27v-4.58h1.55v12.75Zm-5-4.61a4,4,0,0,0,.75,2.65,2.25,2.25,0,0,0,1.77.88,2.21,2.21,0,0,0,1.74-.84,3.85,3.85,0,0,0,.72-2.56,4.32,4.32,0,0,0-.73-2.78,2.26,2.26,0,0,0-1.8-.89,2.2,2.2,0,0,0-1.75.85A4.27,4.27,0,0,0,770,249.51Z"/><path class="cls-1" d="M779.41,243.74l1.15-2.44h2.06l-1.92,2.44Zm.07,10.38v-9.23h1.57v9.23Z"/><path class="cls-1" d="M783.33,251.36l1.55-.24a2.17,2.17,0,0,0,.72,1.43,2.56,2.56,0,0,0,1.67.49,2.41,2.41,0,0,0,1.6-.44,1.29,1.29,0,0,0,.52-1,.94.94,0,0,0-.46-.83,6.5,6.5,0,0,0-1.6-.53,13.84,13.84,0,0,1-2.39-.76,2.34,2.34,0,0,1-1-.87,2.46,2.46,0,0,1-.06-2.39,2.58,2.58,0,0,1,.77-.87,3.46,3.46,0,0,1,1-.46,4.89,4.89,0,0,1,1.35-.18,5.31,5.31,0,0,1,1.91.31,2.56,2.56,0,0,1,1.21.85,3.29,3.29,0,0,1,.54,1.43l-1.53.21a1.7,1.7,0,0,0-.6-1.12,2.28,2.28,0,0,0-1.42-.4,2.55,2.55,0,0,0-1.54.36,1.07,1.07,0,0,0-.46.84.84.84,0,0,0,.2.54,1.28,1.28,0,0,0,.6.42c.15.06.61.19,1.38.4a20.3,20.3,0,0,1,2.32.73,2.4,2.4,0,0,1,1,.82,2.35,2.35,0,0,1,.37,1.34,2.58,2.58,0,0,1-.46,1.47,2.92,2.92,0,0,1-1.31,1.07,4.88,4.88,0,0,1-2,.38,4.35,4.35,0,0,1-2.75-.75A3.51,3.51,0,0,1,783.33,251.36Z"/><path class="cls-1" d="M796.35,252.72l.22,1.38a5.3,5.3,0,0,1-1.18.14,2.65,2.65,0,0,1-1.32-.27,1.51,1.51,0,0,1-.66-.71,5.48,5.48,0,0,1-.19-1.84V246.1h-1.15v-1.21h1.15V242.6l1.55-.94v3.23h1.58v1.21h-1.58v5.4a2.46,2.46,0,0,0,.09.86.62.62,0,0,0,.27.31,1.07,1.07,0,0,0,.53.11A5.2,5.2,0,0,0,796.35,252.72Z"/><path class="cls-1" d="M798,243.17v-1.8h1.56v1.8Zm0,11v-9.23h1.56v9.23Z"/><path class="cls-1" d="M808,250.74l1.54.2a4,4,0,0,1-1.29,2.49,3.75,3.75,0,0,1-2.55.9,4,4,0,0,1-3.05-1.24,5,5,0,0,1-1.15-3.55,6.44,6.44,0,0,1,.5-2.62,3.43,3.43,0,0,1,1.5-1.68,4.43,4.43,0,0,1,2.21-.56,3.82,3.82,0,0,1,2.46.76,3.5,3.5,0,0,1,1.23,2.16l-1.53.23a2.51,2.51,0,0,0-.77-1.4,2,2,0,0,0-1.33-.47,2.44,2.44,0,0,0-1.92.85,4,4,0,0,0-.74,2.68,4.21,4.21,0,0,0,.71,2.71,2.34,2.34,0,0,0,1.86.84,2.21,2.21,0,0,0,1.54-.56A2.83,2.83,0,0,0,808,250.74Z"/><path class="cls-1" d="M810.37,249.5a4.77,4.77,0,0,1,1.43-3.8,4.3,4.3,0,0,1,2.9-1,4.13,4.13,0,0,1,3.11,1.24,4.76,4.76,0,0,1,1.21,3.45,6.09,6.09,0,0,1-.53,2.81,3.77,3.77,0,0,1-1.56,1.58,4.49,4.49,0,0,1-2.23.57,4.16,4.16,0,0,1-3.13-1.24A5,5,0,0,1,810.37,249.5Zm1.61,0a4,4,0,0,0,.77,2.66,2.59,2.59,0,0,0,3.89,0,4,4,0,0,0,.77-2.71,3.78,3.78,0,0,0-.77-2.59,2.49,2.49,0,0,0-1.94-.89,2.52,2.52,0,0,0-2,.88A4,4,0,0,0,812,249.5Z"/><path class="cls-1" d="M820.3,251.36l1.55-.24a2.18,2.18,0,0,0,.73,1.43,2.51,2.51,0,0,0,1.66.49,2.41,2.41,0,0,0,1.6-.44,1.29,1.29,0,0,0,.52-1,.94.94,0,0,0-.46-.83,6.34,6.34,0,0,0-1.6-.53,13.65,13.65,0,0,1-2.38-.76,2.28,2.28,0,0,1-1-.87,2.35,2.35,0,0,1-.35-1.24,2.42,2.42,0,0,1,.29-1.15,2.47,2.47,0,0,1,.77-.87,3.27,3.27,0,0,1,1-.46,4.89,4.89,0,0,1,1.35-.18,5.31,5.31,0,0,1,1.91.31,2.64,2.64,0,0,1,1.22.85,3.17,3.17,0,0,1,.53,1.43l-1.53.21a1.7,1.7,0,0,0-.6-1.12,2.23,2.23,0,0,0-1.41-.4,2.55,2.55,0,0,0-1.54.36,1,1,0,0,0-.46.84.83.83,0,0,0,.19.54,1.4,1.4,0,0,0,.6.42c.15.06.62.19,1.38.4a19.64,19.64,0,0,1,2.32.73,2.34,2.34,0,0,1,1,.82,2.28,2.28,0,0,1,.37,1.34,2.64,2.64,0,0,1-.45,1.47A3,3,0,0,1,826.2,254a4.85,4.85,0,0,1-2,.38,4.32,4.32,0,0,1-2.74-.75A3.52,3.52,0,0,1,820.3,251.36Z"/><path class="cls-1" d="M500.84,183.09l36.31,4s9.8,56,11.58,74.2l-38.19,10-3.76-1.19S507.67,222.08,500.84,183.09Z"/><path class="cls-1" d="M503.49,269.06l.21-1.95s.89-48-5.94-87l29.34,3.2c-.82-5-1.33-8.12-1.33-8.12L486.29,171c6.82,39,6.65,94.89,6.65,94.89Z"/><path class="cls-1" d="M489.86,262.94s.18-55.9-6.65-94.88l35.27,3.82c-1.67-10.4-2.87-17.72-2.87-17.72L469,149c6.82,39,8,112,8,112l12.78,3.92Z"/><path class="cls-1" d="M473.67,259.91c-.43-17.11-1.87-60.35-5.92-91.94l-12.38-1.34c6.83,39,5.92,89.47,5.92,89.47Z"/><path class="cls-1" d="M457.71,255a617.28,617.28,0,0,0-3.18-62.52l-10.59-1.15c6.82,39,3.62,60.55,3.62,60.55Z"/><path class="cls-1" d="M897.45,185.92V230a9.39,9.39,0,0,1-1.74.47,13.57,13.57,0,0,1-2.43.21,5.68,5.68,0,0,1-3.75-1,4.19,4.19,0,0,1-1.11-3.28V185.92H873.34a5.39,5.39,0,0,1-.73-1.54,7.27,7.27,0,0,1-.29-2.13,4.06,4.06,0,0,1,.89-2.85,3.15,3.15,0,0,1,2.43-1H912.7a5.74,5.74,0,0,1,.64,1.45,6.61,6.61,0,0,1,.3,2q0,4-3.32,4Z"/><path class="cls-1" d="M936.73,189.07q7.93,0,12.61,3.45T954,203.38v19.86a4.61,4.61,0,0,1-.89,3,9.84,9.84,0,0,1-2.43,2,23.87,23.87,0,0,1-5.71,2.22,31.63,31.63,0,0,1-8.1.94q-8.26,0-12.91-3.24t-4.64-9.55q0-5.61,3.62-8.6t10.44-3.66l11.84-1.2V203.3q0-3.75-2.42-5.46a11.72,11.72,0,0,0-6.78-1.7,22.72,22.72,0,0,0-6.56.94,36.32,36.32,0,0,0-5.62,2.13,6.45,6.45,0,0,1-1.45-1.66,4.11,4.11,0,0,1-.6-2.18,3.73,3.73,0,0,1,.73-2.38,5.59,5.59,0,0,1,2.25-1.62,20,20,0,0,1,5.46-1.75A36.26,36.26,0,0,1,936.73,189.07Zm.17,35.36a20,20,0,0,0,5.2-.6,10,10,0,0,0,3.15-1.27V211.73l-9.28.94a13.26,13.26,0,0,0-5.88,1.75,4.53,4.53,0,0,0-2,4,5.15,5.15,0,0,0,2.13,4.39Q932.39,224.43,936.9,224.43Z"/><path class="cls-1" d="M977.46,230a9.43,9.43,0,0,1-1.66.47,12.12,12.12,0,0,1-2.34.21,5.88,5.88,0,0,1-3.67-.94,3.77,3.77,0,0,1-1.19-3.15V198.61a6.25,6.25,0,0,1,.85-3.45,8.74,8.74,0,0,1,2.73-2.51,23.1,23.1,0,0,1,6.3-2.56,32.81,32.81,0,0,1,8.44-1q7.5,0,7.5,4.26a5.54,5.54,0,0,1-.34,1.92,9.57,9.57,0,0,1-.77,1.57c-.57-.11-1.28-.22-2.13-.34a21.27,21.27,0,0,0-2.73-.17,24.63,24.63,0,0,0-6.22.73,19.63,19.63,0,0,0-4.77,1.83Z"/><path class="cls-1" d="M1019.13,189.07q7.92,0,12.61,3.45t4.68,10.86v19.86a4.61,4.61,0,0,1-.89,3,9.84,9.84,0,0,1-2.43,2,23.87,23.87,0,0,1-5.71,2.22,31.6,31.6,0,0,1-8.09.94q-8.26,0-12.91-3.24t-4.65-9.55q0-5.61,3.63-8.6t10.43-3.66l11.85-1.2V203.3q0-3.75-2.43-5.46a11.72,11.72,0,0,0-6.78-1.7,22.77,22.77,0,0,0-6.56.94,36.72,36.72,0,0,0-5.62,2.13,6.45,6.45,0,0,1-1.45-1.66,4.11,4.11,0,0,1-.6-2.18,3.79,3.79,0,0,1,.73-2.38,5.63,5.63,0,0,1,2.26-1.62,20,20,0,0,1,5.45-1.75A36.38,36.38,0,0,1,1019.13,189.07Zm.17,35.36a20,20,0,0,0,5.19-.6,10.15,10.15,0,0,0,3.16-1.27V211.73l-9.29.94a13.35,13.35,0,0,0-5.88,1.75,4.53,4.53,0,0,0-2,4,5.15,5.15,0,0,0,2.13,4.39Q1014.78,224.43,1019.3,224.43Z"/><path class="cls-1" d="M1069.05,231.33a22.55,22.55,0,0,1-5.11-.55,18.57,18.57,0,0,1-4.09-1.41v16a8.64,8.64,0,0,1-1.66.47,12.12,12.12,0,0,1-2.34.21,5.88,5.88,0,0,1-3.67-.94,3.88,3.88,0,0,1-1.19-3.23V197.84a6,6,0,0,1,.68-3,7.12,7.12,0,0,1,2.56-2.26,29,29,0,0,1,5.83-2.43,26.42,26.42,0,0,1,7.8-1.06,27,27,0,0,1,8.27,1.23,17.91,17.91,0,0,1,6.64,3.8,17.57,17.57,0,0,1,4.43,6.51,24.89,24.89,0,0,1,1.62,9.42,26.54,26.54,0,0,1-1.49,9.33,19.07,19.07,0,0,1-4.09,6.65,16.42,16.42,0,0,1-6.22,4A23.1,23.1,0,0,1,1069.05,231.33Zm-1.36-7.24a11.6,11.6,0,0,0,8.78-3.37q3.22-3.36,3.23-10.69a19.33,19.33,0,0,0-.93-6.39,12,12,0,0,0-2.52-4.3,9,9,0,0,0-3.75-2.39,14.6,14.6,0,0,0-4.64-.72,15,15,0,0,0-4.64.63,17.87,17.87,0,0,0-3.37,1.5v23.43a12.88,12.88,0,0,0,3.41,1.66A14.14,14.14,0,0,0,1067.69,224.09Z"/><path class="cls-1" d="M1116.6,189.07q7.92,0,12.61,3.45t4.69,10.86v19.86a4.55,4.55,0,0,1-.9,3,9.84,9.84,0,0,1-2.43,2,23.87,23.87,0,0,1-5.71,2.22,31.54,31.54,0,0,1-8.09.94q-8.26,0-12.91-3.24t-4.64-9.55q0-5.61,3.62-8.6t10.43-3.66l11.85-1.2V203.3q0-3.75-2.43-5.46a11.7,11.7,0,0,0-6.77-1.7,22.67,22.67,0,0,0-6.56.94,36.46,36.46,0,0,0-5.63,2.13,6.45,6.45,0,0,1-1.45-1.66,4.19,4.19,0,0,1-.59-2.18,3.79,3.79,0,0,1,.72-2.38,5.63,5.63,0,0,1,2.26-1.62,20,20,0,0,1,5.45-1.75A36.46,36.46,0,0,1,1116.6,189.07Zm.17,35.36a20,20,0,0,0,5.2-.6,10.18,10.18,0,0,0,3.15-1.27V211.73l-9.29.94a13.35,13.35,0,0,0-5.88,1.75,4.55,4.55,0,0,0-2,4,5.15,5.15,0,0,0,2.13,4.39Q1112.25,224.43,1116.77,224.43Z"/><path class="cls-1" d="M1166.27,185.92V230a9.17,9.17,0,0,1-1.74.47,13.57,13.57,0,0,1-2.43.21,5.68,5.68,0,0,1-3.75-1,4.19,4.19,0,0,1-1.11-3.28V185.92h-15.08a5.13,5.13,0,0,1-.72-1.54,6.93,6.93,0,0,1-.3-2.13,4.11,4.11,0,0,1,.89-2.85,3.15,3.15,0,0,1,2.43-1h37.06a5.74,5.74,0,0,1,.64,1.45,6.61,6.61,0,0,1,.3,2q0,4-3.32,4Z"/><path class="cls-1" d="M1195,214.72a11.61,11.61,0,0,0,4.64,7.19,15.32,15.32,0,0,0,8.82,2.35,18.66,18.66,0,0,0,6.56-1.11,20.7,20.7,0,0,0,4.77-2.38,4.21,4.21,0,0,1,2.39,3.83,3.92,3.92,0,0,1-1.11,2.68,9.14,9.14,0,0,1-3,2.13,19.56,19.56,0,0,1-4.52,1.41,28.93,28.93,0,0,1-5.58.51,28,28,0,0,1-9-1.36,18.55,18.55,0,0,1-6.94-4.09,18.2,18.2,0,0,1-4.48-6.73,25.29,25.29,0,0,1-1.57-9.29,24.36,24.36,0,0,1,1.53-9,18.47,18.47,0,0,1,4.17-6.48,17.88,17.88,0,0,1,6.22-4,21.38,21.38,0,0,1,7.67-1.36,20.29,20.29,0,0,1,7.46,1.32,17.43,17.43,0,0,1,5.79,3.66,16.24,16.24,0,0,1,3.75,5.58,18.59,18.59,0,0,1,1.32,7.08,4.16,4.16,0,0,1-1,3.11,5.65,5.65,0,0,1-3,1.32ZM1205.55,196a10.49,10.49,0,0,0-7.79,3.15c-2.08,2.11-3.17,5.11-3.28,9l21-3a10.78,10.78,0,0,0-2.82-6.52Q1210.16,196,1205.55,196Z"/><path class="cls-1" d="M1255.74,196.31a13.67,13.67,0,0,0-5,.9,10.54,10.54,0,0,0-4,2.68,13.12,13.12,0,0,0-2.64,4.39,16.78,16.78,0,0,0-1,6q0,6.74,3.49,10.27a12.25,12.25,0,0,0,9.12,3.54,16.21,16.21,0,0,0,5.54-.85,17.65,17.65,0,0,0,4-2.05,6.39,6.39,0,0,1,1.79,1.62,3.84,3.84,0,0,1,.68,2.3q0,2.64-3.45,4.43a19.76,19.76,0,0,1-9.07,1.79,27,27,0,0,1-8.57-1.28,17.69,17.69,0,0,1-6.68-3.92,18,18,0,0,1-4.39-6.6,24.72,24.72,0,0,1-1.58-9.25,24,24,0,0,1,1.66-9.28,18.14,18.14,0,0,1,11.21-10.61,24.64,24.64,0,0,1,8.09-1.32,23,23,0,0,1,5.07.51,14.55,14.55,0,0,1,3.88,1.41,7.83,7.83,0,0,1,2.51,2,3.85,3.85,0,0,1,.26,4.6,4.48,4.48,0,0,1-1.58,1.49,24.34,24.34,0,0,0-4-2A15.09,15.09,0,0,0,1255.74,196.31Z"/><path class="cls-1" d="M1304.86,198.4a9.74,9.74,0,0,0-6.6-2.17,13.38,13.38,0,0,0-5,.89,17.17,17.17,0,0,0-4,2.17V230a9.43,9.43,0,0,1-1.66.47,12.15,12.15,0,0,1-2.35.21,5.85,5.85,0,0,1-3.66-.94,3.75,3.75,0,0,1-1.19-3.15V174.84c.39-.11,1-.26,1.7-.43a10.69,10.69,0,0,1,2.39-.25,5.68,5.68,0,0,1,3.62.94,3.82,3.82,0,0,1,1.15,3.15v13.46a27.72,27.72,0,0,1,4.56-1.83,19.51,19.51,0,0,1,5.83-.81q7.42,0,12,3.92t4.55,11.93V230a9.05,9.05,0,0,1-1.7.47,12.38,12.38,0,0,1-2.3.21,5.86,5.86,0,0,1-3.71-.94,3.85,3.85,0,0,1-1.15-3.15v-21.3Q1307.37,200.58,1304.86,198.4Z"/></svg>